<svg width="10" height="18" viewBox="0 0 10 18" fill="none" xmlns="http://www.w3.org/2000/svg">
<path d="M1.98156 0.880207L9.74653 8.62213C9.8387 8.7143 9.90413 8.81415 9.94284 8.92167C9.98155 9.0292 10.0006 9.14441 9.99999 9.26729C9.99999 9.39018 9.98094 9.50539 9.94284 9.61292C9.90475 9.72044 9.83931 9.82029 9.74653 9.91245L1.98156 17.6774C1.76651 17.8925 1.49769 18 1.17511 18C0.852533 18 0.576036 17.8848 0.345622 17.6544C0.115207 17.424 0 17.1551 0 16.8479C0 16.5407 0.115207 16.2719 0.345622 16.0415L7.11981 9.26729L0.345622 2.49311C0.130569 2.27806 0.0230408 2.01293 0.0230408 1.69772C0.0230408 1.38251 0.138248 1.11001 0.368663 0.880207C0.599077 0.649794 0.867894 0.534586 1.17511 0.534586C1.48233 0.534586 1.75115 0.649794 1.98156 0.880207Z" fill="#535761"/>
</svg>
