<svg width="25" height="14" viewBox="0 0 25 14" fill="none" xmlns="http://www.w3.org/2000/svg">
<path d="M18.3872 11.6923H6.77431C6.77431 11.6923 5.80657 11.6923 5.80657 12.8462C5.80657 14 6.77431 14 6.77431 14H18.3872C18.3872 14 19.355 14 19.355 12.8462C19.355 11.6923 18.3872 11.6923 18.3872 11.6923Z" fill="#7E8188"/>
<path d="M21.2904 5.84615H3.87109C3.87109 5.84615 2.90335 5.84615 2.90335 7C2.90335 8.15385 3.87109 8.15385 3.87109 8.15385H21.2904C21.2904 8.15385 22.2582 8.15385 22.2582 7C22.2582 5.84615 21.2904 5.84615 21.2904 5.84615Z" fill="#7E8188"/>
<path d="M24.1937 0H0.806574C0.806574 0 0.00012207 0.000572324 0.00012207 1.15327C0.00012207 2.30597 0.806574 2.30769 0.806574 2.30769L24.1937 2.30814C24.1937 2.30814 25.0001 2.30859 25.0001 1.15429C25.0001 0 24.1937 0 24.1937 0Z" fill="#7E8188"/>
</svg>
