<svg width="25" height="27" viewBox="0 0 25 27" fill="none" xmlns="http://www.w3.org/2000/svg">
<path d="M14.5755 25.2076L21.7998 21.1416C22.5725 20.7068 22.9575 20.4901 23.238 20.187C23.4862 19.9184 23.6737 19.602 23.7884 19.2582C23.9168 18.8699 23.9168 18.4365 23.9168 17.5722V9.42717C23.9168 8.56288 23.9168 8.12944 23.7871 7.74116C23.6724 7.39738 23.4849 7.08094 23.2367 6.81236C22.9588 6.51051 22.5751 6.29379 21.809 5.86293L14.5755 1.79172C13.8041 1.35699 13.4191 1.14028 13.0089 1.05643C12.646 0.981191 12.2709 0.981191 11.908 1.05643C11.4979 1.14028 11.1128 1.35699 10.3414 1.79172L3.11449 5.85906C2.34443 6.2925 1.9594 6.50922 1.68021 6.81236C1.43202 7.08094 1.2445 7.39738 1.12979 7.74116C1.00012 8.13073 1.00012 8.56417 1.00012 9.43233V17.5657C1.00012 18.4339 1.00012 18.8686 1.12979 19.2569C1.2445 19.6007 1.43202 19.9171 1.68021 20.1857C1.9594 20.4901 2.34575 20.7068 3.11581 21.1403L10.3401 25.2076C11.1128 25.6424 11.4979 25.8591 11.908 25.9429C12.2706 26.019 12.6463 26.019 13.0089 25.9429C13.4191 25.8591 13.8041 25.6424 14.5755 25.2076Z" stroke="white" stroke-width="2" stroke-linecap="round" stroke-linejoin="round"/>
<path d="M8.48914 13.4992C8.48914 14.5256 8.90734 15.51 9.65175 16.2357C10.3962 16.9615 11.4058 17.3692 12.4585 17.3692C13.5113 17.3692 14.5209 16.9615 15.2653 16.2357C16.0097 15.51 16.4279 14.5256 16.4279 13.4992C16.4279 12.4729 16.0097 11.4885 15.2653 10.7628C14.5209 10.037 13.5113 9.62927 12.4585 9.62927C11.4058 9.62927 10.3962 10.037 9.65175 10.7628C8.90734 11.4885 8.48914 12.4729 8.48914 13.4992Z" stroke="white" stroke-width="2" stroke-linecap="round" stroke-linejoin="round"/>
</svg>
